<?xml version="1.0" encoding="UTF-8" standalone="no"?>
<!-- Generator: Adobe Illustrator 18.0.0, SVG Export Plug-In . SVG Version: 6.00 Build 0)  -->

<svg
   version="1.1"
   id="Layer_1"
   x="0px"
   y="0px"
   viewBox="0 0 70.9 98.7"
   enable-background="new 0 0 70.9 98.7"
   xml:space="preserve"
   sodipodi:docname="kcr.svg"
   inkscape:export-filename="kcr.png"
   inkscape:export-xdpi="1400"
   inkscape:export-ydpi="1400"
   inkscape:version="1.2.2 (b0a8486541, 2022-12-01)"
   xmlns:inkscape="http://www.inkscape.org/namespaces/inkscape"
   xmlns:sodipodi="http://sodipodi.sourceforge.net/DTD/sodipodi-0.dtd"
   xmlns="http://www.w3.org/2000/svg"
   xmlns:svg="http://www.w3.org/2000/svg"><defs
   id="defs29" /><sodipodi:namedview
   id="namedview27"
   pagecolor="#ffffff"
   bordercolor="#000000"
   borderopacity="0.25"
   inkscape:showpageshadow="2"
   inkscape:pageopacity="0.0"
   inkscape:pagecheckerboard="0"
   inkscape:deskcolor="#d1d1d1"
   showgrid="false"
   inkscape:zoom="6.4262898"
   inkscape:cx="15.638884"
   inkscape:cy="48.706176"
   inkscape:window-width="1920"
   inkscape:window-height="1001"
   inkscape:window-x="0"
   inkscape:window-y="0"
   inkscape:window-maximized="1"
   inkscape:current-layer="Layer_1" />

<polyline
   fill="#CF0038"
   points="45,0 61,0 70.9,18.4 61.5,36.7 45.5,36.7 54.9,18.4 45,0 "
   id="polyline4" />
<polyline
   fill="#CF0038"
   points="9.4,18.4 0,36.7 9.7,55 25.7,55 16,36.7 25.3,18.4 9.4,18.4 "
   id="polyline6" />
<polyline
   fill="#CF0038"
   points="32.1,18.4 22.7,36.7 38.7,36.7 48.1,18.4 32.1,18.4 "
   id="polyline8" />
<path
   fill="#004C98"
   d="M66.6,90.2c0-4.7-3.8-9.1-8.6-9.1H11.8c-4.7,0-8.6,4.4-8.6,9.1c0,4.7,3.8,8.5,8.6,8.5H58  C62.8,98.7,66.6,95,66.6,90.2"
   id="path10" />
<path
   fill="#004C98"
   d="M42.9,76.1l-0.4-3.3c-1.1,0.6-2.8,1-4.7,1c-3.8,0-6.2-1.8-6.2-4.8c0-2.8,2.4-4.6,6.2-4.6  c1.8,0,3.3,0.4,4.5,1l0.4-3.1c-1.5-0.4-3.4-0.7-5.5-0.7c-6.6,0-10.6,2.9-10.6,7.7c0,4.8,3.9,7.6,10.6,7.6  C39.3,76.8,41.5,76.5,42.9,76.1"
   id="path12" />
<polyline
   fill="#004C98"
   points="26.8,76.5 19.2,68.6 26.2,61.8 20.6,61.8 14.7,68.2 14.7,61.8 9.5,61.8 9.5,76.5 14.7,76.5   14.7,69.8 20.6,76.5 26.8,76.5 "
   id="polyline14" />
<path
   fill="#004C98"
   d="M54.9,67.9c-0.4,0.2-1.1,0.3-2,0.3h-2v-3.8h2c0.9,0,1.7,0.1,2.2,0.4c0.6,0.3,0.9,0.8,0.9,1.5  C56,67,55.7,67.7,54.9,67.9 M59.4,71.5c-0.7-1.6-1.1-1.9-2.2-2.3c2.3-0.4,3.6-1.7,3.6-3.6c0-1.5-1-2.6-2.7-3.2  c-1.1-0.3-2.5-0.6-4-0.6h-7.9v14.7h4.8v-5.8c3,0,3.3,0.2,4.2,2.5l1.3,3.3h5.3L59.4,71.5z"
   id="path16" />
<path
   fill="#FFFFFF"
   d="M12.8,87h3.5l-0.3,7.4c0,0.1,0,0.2,0.1,0.3c0.1,0.1,0.2,0.2,0.5,0.2l0.7,0c0.2,0,0.3-0.1,0.4-0.4  c0.1-0.2,0.2-0.8,0.3-1.8l1,0.3c-0.2,1.1-0.4,1.8-0.5,2.1c-0.1,0.3-0.3,0.5-0.5,0.6c-0.2,0.1-0.7,0.2-1.4,0.2  c-1.1,0-1.6-0.6-1.6-1.7l0.2-6.1h-2.5c-0.2,2.7-0.6,4.7-1.2,5.9c-0.7,1.2-1.7,2-3.2,2.4l-0.6-1c1.4-0.3,2.4-1.1,3-2.2  c0.5-1.1,0.9-2.8,1-5H9.6v-1h2.2V84h1.1V87"
   id="path18" />
<path
   fill="#FFFFFF"
   d="M23.4,95.2l0.5,0.9c1.4-0.2,2.6-0.6,3.6-1.2l-0.7-0.7C25.7,94.8,24.6,95.1,23.4,95.2 M25.2,92.8h2.4v0.5  h-2.4L25.2,92.8z M28.5,92.8H31l0,0.5h-2.4V92.8z M31,91.9h-2.4v-0.5H31V91.9z M27.6,91.9h-2.4v-0.5h2.4V91.9z M32.4,96.2l0.5-0.8  c-1-0.6-2.1-1-3.2-1.1v0h2.3v-3.8h-3.4l0-0.4h4.1v-0.9h-9.1V90h4.1v0.4h-3.4v3.8h5.2l-0.6,0.7C30,95.1,31.2,95.5,32.4,96.2   M30.5,87.3h1.7v-0.9h-1.7v-0.5h-1l0,0.5h-2.9v-0.5h-1v0.5h-1.7v0.9h1.7v1.4h4.9V87.3z M22.2,93.3c-0.2,0.7-0.5,1.4-0.9,2.1l0.8,0.7  c0.2-0.3,0.3-0.5,0.5-0.8c0.1-0.3,0.2-0.5,0.3-0.7c0.1-0.2,0.2-0.5,0.2-0.7c0-0.2,0.1-0.5,0.1-0.7c0-0.3,0.1-0.6,0.1-1.1  c0-0.4,0.1-0.7,0.1-0.9v-5.4h9.3v-0.9h-4.5c-0.3-0.4-0.7-0.8-1.1-1.1l-0.8,0.5c0.3,0.3,0.5,0.4,0.7,0.5v0h-4.6v6.6  C22.4,92,22.4,92.6,22.2,93.3 M26.6,87.8l0-0.5h3l0,0.5H26.6z"
   id="path20" />
<path
   fill="#FFFFFF"
   d="M36.7,90.9l-0.8,0.3c0.5,0.7,0.7,1.5,0.8,2.5l0.8-0.2C37.4,92.3,37.1,91.5,36.7,90.9 M38.6,93.3l0.8,0.3  c0.4-1,0.6-1.7,0.6-2.4l-0.8-0.3C39.2,91.5,39,92.3,38.6,93.3 M40.3,91h3.5v-2.5h-3.5V91z M46.3,86.9l0.8-0.4  c-0.2-0.6-0.6-1.3-1.1-2l-0.8,0.4C45.7,85.7,46.1,86.3,46.3,86.9 M38.5,85.1c0.1-0.1,0.1-0.3,0.2-0.6l-0.8-0.3  c-0.4,1.5-1.1,2.8-2.2,4l0.7,0.6l0.4-0.4h0.9v1h-1.5v1h1.5v3.8l-1.7,0.4l0.4,0.9l3.8-1v-0.9L38.6,94v-3.6h1.3v-1h-1.3v-1h1v-1h-2.1  c0.2-0.3,0.5-0.8,0.8-1.4c0.4,0.3,0.8,0.7,1.3,1.4l0.3-0.2v0.9h4.5l0.2,2.3c0.1,0.9,0.2,2,0.5,3.2c-0.2,0.4-0.4,0.8-0.7,1.3h0v-0.5  l-1.5,0.3l0-0.6h1.2V93h-1.2v-0.7h1.5v-0.9h-4v0.9h1.5V93h-1.1V94h1.1l0,0.8l-2,0.4l0.3,0.9l3.8-0.8l0,0l-0.3,0.3l0.7,0.6  c0.4-0.4,0.8-0.9,1.1-1.5c0.2,0.6,0.4,0.9,0.6,1.1c0.2,0.2,0.4,0.2,0.5,0.2c0.2,0,0.4-0.1,0.5-0.4c0.2-0.2,0.3-0.9,0.5-2l-0.9-0.3  c-0.1,1-0.1,1.5-0.2,1.5c0,0-0.1-0.1-0.2-0.3c-0.1-0.2-0.2-0.5-0.3-0.9c0.5-1.2,0.8-2.7,1.1-4.6L46,88.8c-0.2,1.3-0.3,2.4-0.5,3.3h0  c-0.2-2.1-0.3-3.4-0.3-4H47v-1h-2c0-0.2-0.1-0.5-0.1-0.9c0-0.3,0-0.6,0-0.7l0-1.4h-0.9l0,1.9c0,0.4,0,0.8,0,1.1h-1.6v-0.8h1.4v-1  h-1.4v-1.2h-1v1.2h-1.4v1h1.4v0.8h-1.7v0l0.4-0.3C39.8,86.1,39.2,85.5,38.5,85.1 M42.8,90.1h-1.6l0-0.7h1.6V90.1z"
   id="path22" />
<path
   fill="#FFFFFF"
   d="M58.9,94.3h-2.5V92h2.5V94.3z M53,88.7h1.2v-0.3l0.6,0.4c0.4-0.4,0.8-0.9,1.2-1.6c0.3,0.6,0.7,1.2,1.1,1.6  c-0.8,0.6-1.7,1.2-2.9,1.6v-0.3H53V88.7z M57.9,88.2c-0.6-0.7-1-1.4-1.2-1.9h2.4C58.8,87,58.4,87.6,57.9,88.2 M50.4,89.8v4.7  c-0.1,0-0.2,0.1-0.4,0.1c-0.2,0.1-0.3,0.1-0.5,0.2l0.6,0.8l0,0.1l4.5-2v-1L53,93.3v-2.2h1.1l0.2,0.4l1.1-0.4V96h1l0-0.7h2.4V96h1V91  h-4.5v0c0.8-0.4,1.6-0.9,2.3-1.5c1,0.9,2,1.5,3.2,1.9l0.7-0.8c-1.4-0.5-2.5-1.1-3.2-1.8c0.2-0.2,0.3-0.3,0.5-0.5  c0.1-0.2,0.3-0.3,0.4-0.5c0.1-0.2,0.2-0.4,0.4-0.5c0.1-0.2,0.2-0.4,0.3-0.7c0.1-0.3,0.2-0.4,0.2-0.5v-0.8h-3.4  c0.2-0.4,0.3-0.7,0.3-1L56.3,84c-0.6,1.9-1.2,3.3-2,4.1v-3.3h-3.7v3.9H52v5.1L51.3,94v0.1h0v-4.4H50.4z M51.5,85.7h1.7v2h-1.7V85.7z  "
   id="path24" />
</svg>
